<?xml version="1.0" encoding="UTF-8" standalone="no"?>
<!DOCTYPE svg PUBLIC "-//W3C//DTD SVG 1.1//EN"
 "http://www.w3.org/Graphics/SVG/1.1/DTD/svg11.dtd">
<!-- Generated by graphviz version 13.1.2 (0)
 -->
<!-- Title: snakemake_dag Pages: 1 -->
<svg width="253pt" height="260pt"
 viewBox="0.00 0.00 253.00 260.00" xmlns="http://www.w3.org/2000/svg" xmlns:xlink="http://www.w3.org/1999/xlink">
<g id="graph0" class="graph" transform="scale(1 1) rotate(0) translate(4 256)">
<title>snakemake_dag</title>
<polygon fill="white" stroke="none" points="-4,4 -4,-256 248.88,-256 248.88,4 -4,4"/>
<!-- 0 -->
<g id="node1" class="node">
<title>0</title>
<path fill="none" stroke="#d85656" stroke-width="2" d="M121.12,-36C121.12,-36 74.38,-36 74.38,-36 68.38,-36 62.38,-30 62.38,-24 62.38,-24 62.38,-12 62.38,-12 62.38,-6 68.38,0 74.38,0 74.38,0 121.12,0 121.12,0 127.12,0 133.12,-6 133.12,-12 133.12,-12 133.12,-24 133.12,-24 133.12,-30 127.12,-36 121.12,-36"/>
<text xml:space="preserve" text-anchor="middle" x="97.75" y="-14.12" font-family="sans" font-size="10.00">bcftools_call</text>
</g>
<!-- 1 -->
<g id="node2" class="node">
<title>1</title>
<path fill="none" stroke="#56d8d8" stroke-width="2" d="M65.5,-180C65.5,-180 12,-180 12,-180 6,-180 0,-174 0,-168 0,-168 0,-156 0,-156 0,-150 6,-144 12,-144 12,-144 65.5,-144 65.5,-144 71.5,-144 77.5,-150 77.5,-156 77.5,-156 77.5,-168 77.5,-168 77.5,-174 71.5,-180 65.5,-180"/>
<text xml:space="preserve" text-anchor="middle" x="38.75" y="-158.12" font-family="sans" font-size="10.00">samtools_sort</text>
</g>
<!-- 1&#45;&gt;0 -->
<g id="edge1" class="edge">
<title>1&#45;&gt;0</title>
<path fill="none" stroke="grey" stroke-width="2" d="M25.34,-143.05C13.2,-124.41 -1,-94.84 11.75,-72 20.27,-56.75 35.18,-45.34 50.21,-37.09"/>
<polygon fill="grey" stroke="grey" stroke-width="2" points="51.54,-40.34 58.93,-32.75 48.42,-34.08 51.54,-40.34"/>
</g>
<!-- 5 -->
<g id="node6" class="node">
<title>5</title>
<path fill="none" stroke="#59d856" stroke-width="2" d="M92.88,-108C92.88,-108 32.62,-108 32.62,-108 26.62,-108 20.62,-102 20.62,-96 20.62,-96 20.62,-84 20.62,-84 20.62,-78 26.62,-72 32.62,-72 32.62,-72 92.88,-72 92.88,-72 98.88,-72 104.88,-78 104.88,-84 104.88,-84 104.88,-96 104.88,-96 104.88,-102 98.88,-108 92.88,-108"/>
<text xml:space="preserve" text-anchor="middle" x="62.75" y="-86.12" font-family="sans" font-size="10.00">samtools_index</text>
</g>
<!-- 1&#45;&gt;5 -->
<g id="edge7" class="edge">
<title>1&#45;&gt;5</title>
<path fill="none" stroke="grey" stroke-width="2" d="M44.81,-143.34C47.12,-136.59 49.83,-128.69 52.43,-121.11"/>
<polygon fill="grey" stroke="grey" stroke-width="2" points="55.7,-122.36 55.63,-111.77 49.08,-120.09 55.7,-122.36"/>
</g>
<!-- 2 -->
<g id="node3" class="node">
<title>2</title>
<path fill="none" stroke="#d6d856" stroke-width="2" stroke-dasharray="5,2" d="M56.5,-252C56.5,-252 21,-252 21,-252 15,-252 9,-246 9,-240 9,-240 9,-228 9,-228 9,-222 15,-216 21,-216 21,-216 56.5,-216 56.5,-216 62.5,-216 68.5,-222 68.5,-228 68.5,-228 68.5,-240 68.5,-240 68.5,-246 62.5,-252 56.5,-252"/>
<text xml:space="preserve" text-anchor="middle" x="38.75" y="-235.75" font-family="sans" font-size="10.00">bwa_map</text>
<text xml:space="preserve" text-anchor="middle" x="38.75" y="-224.5" font-family="sans" font-size="10.00">sample: A</text>
</g>
<!-- 2&#45;&gt;1 -->
<g id="edge5" class="edge">
<title>2&#45;&gt;1</title>
<path fill="none" stroke="grey" stroke-width="2" d="M38.75,-215.34C38.75,-208.75 38.75,-201.08 38.75,-193.67"/>
<polygon fill="grey" stroke="grey" stroke-width="2" points="42.25,-193.93 38.75,-183.93 35.25,-193.93 42.25,-193.93"/>
</g>
<!-- 3 -->
<g id="node4" class="node">
<title>3</title>
<path fill="none" stroke="#56d8d8" stroke-width="2" d="M183.5,-180C183.5,-180 130,-180 130,-180 124,-180 118,-174 118,-168 118,-168 118,-156 118,-156 118,-150 124,-144 130,-144 130,-144 183.5,-144 183.5,-144 189.5,-144 195.5,-150 195.5,-156 195.5,-156 195.5,-168 195.5,-168 195.5,-174 189.5,-180 183.5,-180"/>
<text xml:space="preserve" text-anchor="middle" x="156.75" y="-158.12" font-family="sans" font-size="10.00">samtools_sort</text>
</g>
<!-- 3&#45;&gt;0 -->
<g id="edge2" class="edge">
<title>3&#45;&gt;0</title>
<path fill="none" stroke="grey" stroke-width="2" d="M149.28,-143.02C139.44,-119.33 122,-77.35 110.16,-48.86"/>
<polygon fill="grey" stroke="grey" stroke-width="2" points="113.39,-47.53 106.32,-39.63 106.93,-50.21 113.39,-47.53"/>
</g>
<!-- 6 -->
<g id="node7" class="node">
<title>6</title>
<path fill="none" stroke="#59d856" stroke-width="2" d="M232.88,-108C232.88,-108 172.62,-108 172.62,-108 166.62,-108 160.62,-102 160.62,-96 160.62,-96 160.62,-84 160.62,-84 160.62,-78 166.62,-72 172.62,-72 172.62,-72 232.88,-72 232.88,-72 238.88,-72 244.88,-78 244.88,-84 244.88,-84 244.88,-96 244.88,-96 244.88,-102 238.88,-108 232.88,-108"/>
<text xml:space="preserve" text-anchor="middle" x="202.75" y="-86.12" font-family="sans" font-size="10.00">samtools_index</text>
</g>
<!-- 3&#45;&gt;6 -->
<g id="edge8" class="edge">
<title>3&#45;&gt;6</title>
<path fill="none" stroke="grey" stroke-width="2" d="M168.36,-143.34C173.06,-136.18 178.62,-127.73 183.87,-119.73"/>
<polygon fill="grey" stroke="grey" stroke-width="2" points="186.76,-121.71 189.32,-111.43 180.91,-117.87 186.76,-121.71"/>
</g>
<!-- 4 -->
<g id="node5" class="node">
<title>4</title>
<path fill="none" stroke="#d6d856" stroke-width="2" d="M174.88,-252C174.88,-252 138.62,-252 138.62,-252 132.62,-252 126.62,-246 126.62,-240 126.62,-240 126.62,-228 126.62,-228 126.62,-222 132.62,-216 138.62,-216 138.62,-216 174.88,-216 174.88,-216 180.88,-216 186.88,-222 186.88,-228 186.88,-228 186.88,-240 186.88,-240 186.88,-246 180.88,-252 174.88,-252"/>
<text xml:space="preserve" text-anchor="middle" x="156.75" y="-235.75" font-family="sans" font-size="10.00">bwa_map</text>
<text xml:space="preserve" text-anchor="middle" x="156.75" y="-224.5" font-family="sans" font-size="10.00">sample: B</text>
</g>
<!-- 4&#45;&gt;3 -->
<g id="edge6" class="edge">
<title>4&#45;&gt;3</title>
<path fill="none" stroke="grey" stroke-width="2" d="M156.75,-215.34C156.75,-208.75 156.75,-201.08 156.75,-193.67"/>
<polygon fill="grey" stroke="grey" stroke-width="2" points="160.25,-193.93 156.75,-183.93 153.25,-193.93 160.25,-193.93"/>
</g>
<!-- 5&#45;&gt;0 -->
<g id="edge3" class="edge">
<title>5&#45;&gt;0</title>
<path fill="none" stroke="grey" stroke-width="2" d="M71.58,-71.34C75.08,-64.34 79.19,-56.12 83.11,-48.28"/>
<polygon fill="grey" stroke="grey" stroke-width="2" points="86.1,-50.12 87.45,-39.61 79.84,-46.99 86.1,-50.12"/>
</g>
<!-- 6&#45;&gt;0 -->
<g id="edge4" class="edge">
<title>6&#45;&gt;0</title>
<path fill="none" stroke="grey" stroke-width="2" d="M175.98,-71.15C163.52,-62.84 148.48,-52.82 134.93,-43.79"/>
<polygon fill="grey" stroke="grey" stroke-width="2" points="137.25,-41.13 126.99,-38.49 133.37,-46.95 137.25,-41.13"/>
</g>
</g>
</svg>
